<svg width="250" height="250" viewBox="0 0 250 250" fill="none" xmlns="http://www.w3.org/2000/svg">
<g clip-path="url(#clip0_594_492)">
<path d="M164.902 66.2343H123.868C122.97 66.237 122.083 66.0338 121.274 65.6401C120.466 65.2465 119.758 64.6727 119.203 63.9625C118.639 63.2456 118.244 62.4088 118.05 61.5157C117.856 60.6225 117.868 59.6967 118.083 58.8086C121.865 42.8918 121.865 26.3039 118.083 10.3872C117.867 9.49908 117.856 8.57329 118.05 7.68022C118.244 6.78715 118.639 5.95034 119.203 5.23344C119.758 4.52321 120.466 3.94943 121.274 3.55577C122.083 3.1621 122.97 2.95892 123.868 2.9617H164.902C166.318 2.96579 167.688 3.47506 168.766 4.3988C169.844 5.32254 170.56 6.60078 170.788 8.00584C173.488 25.6301 173.488 43.5659 170.788 61.1901C170.56 62.5952 169.844 63.8734 168.766 64.7972C167.688 65.7209 166.318 66.2302 164.902 66.2343Z" fill="#E6E6E6"/>
<path d="M123.868 6.06423C123.437 6.06277 123.011 6.1602 122.622 6.34912C122.234 6.53803 121.894 6.81344 121.627 7.1544C121.353 7.50374 121.162 7.91136 121.068 8.34623C120.974 8.7811 120.98 9.23178 121.085 9.66397C124.98 26.0564 124.98 43.1399 121.086 59.5323C120.98 59.9644 120.974 60.415 121.068 60.8498C121.162 61.2846 121.353 61.6921 121.627 62.0414C121.894 62.3824 122.234 62.6581 122.622 62.8471C123.011 63.036 123.437 63.1335 123.868 63.132H164.902C165.582 63.1323 166.24 62.8898 166.759 62.4479C167.278 62.006 167.625 61.3933 167.736 60.7189C170.389 43.407 170.389 25.7892 167.736 8.47735C167.625 7.80295 167.278 7.19024 166.759 6.74833C166.24 6.30642 165.582 6.06399 164.902 6.06422L123.868 6.06423Z" fill="white"/>
<path d="M155.947 20.9818H134.414C133.596 20.9809 132.811 20.6538 132.232 20.0722C131.654 19.4906 131.328 18.702 131.327 17.8795V16.6672C131.328 15.8447 131.654 15.0562 132.232 14.4746C132.811 13.893 133.596 13.5658 134.414 13.5649H155.947C156.766 13.5658 157.55 13.893 158.129 14.4746C158.708 15.0562 159.034 15.8447 159.034 16.6672V17.8795C159.034 18.702 158.708 19.4906 158.129 20.0722C157.55 20.6538 156.766 20.9809 155.947 20.9818Z" fill="#E6E6E6"/>
<path d="M155.947 36.3001H134.414C133.596 36.2992 132.811 35.9721 132.232 35.3905C131.654 34.8089 131.328 34.0204 131.327 33.1979V31.9856C131.328 31.1631 131.654 30.3745 132.232 29.7929C132.811 29.2113 133.596 28.8842 134.414 28.8833H155.947C156.766 28.8842 157.55 29.2113 158.129 29.7929C158.708 30.3745 159.034 31.1631 159.034 31.9856V33.1979C159.034 34.0204 158.708 34.8089 158.129 35.3905C157.55 35.9721 156.766 36.2992 155.947 36.3001Z" fill="#E6E6E6"/>
<path d="M155.947 51.6185H134.414C133.596 51.6176 132.811 51.2905 132.232 50.7089C131.654 50.1273 131.328 49.3387 131.327 48.5162V47.3039C131.328 46.4814 131.654 45.6929 132.232 45.1113C132.811 44.5297 133.596 44.2026 134.414 44.2017H155.947C156.766 44.2026 157.55 44.5297 158.129 45.1113C158.708 45.6929 159.034 46.4814 159.034 47.3039V48.5162C159.034 49.3387 158.708 50.1273 158.129 50.7089C157.55 51.2905 156.766 51.6176 155.947 51.6185Z" fill="#E6E6E6"/>
<path d="M242.089 105.531H201.055C200.157 105.534 199.27 105.331 198.462 104.937C197.653 104.543 196.945 103.97 196.39 103.259C195.826 102.543 195.431 101.706 195.237 100.813C195.043 99.9194 195.055 98.9935 195.27 98.1054C199.052 82.1886 199.052 65.6008 195.27 49.684C195.054 48.796 195.043 47.8702 195.237 46.9771C195.431 46.084 195.826 45.2472 196.39 44.5303C196.945 43.8201 197.653 43.2463 198.461 42.8526C199.27 42.459 200.157 42.2558 201.055 42.2586H242.089C243.505 42.2627 244.875 42.7719 245.953 43.6957C247.031 44.6194 247.747 45.8977 247.975 47.3027C250.675 64.927 250.675 82.8627 247.975 100.487C247.747 101.892 247.031 103.17 245.953 104.094C244.875 105.018 243.505 105.527 242.089 105.531Z" fill="#E6E6E6"/>
<path d="M201.055 45.3609C200.624 45.3594 200.198 45.4568 199.809 45.6457C199.421 45.8347 199.081 46.1101 198.814 46.451C198.54 46.8004 198.349 47.208 198.255 47.6429C198.161 48.0777 198.167 48.5284 198.272 48.9606C202.167 65.353 202.167 82.4365 198.273 98.8289C198.167 99.261 198.161 99.7116 198.255 100.146C198.349 100.581 198.54 100.989 198.814 101.338C199.081 101.679 199.421 101.955 199.809 102.144C200.198 102.333 200.624 102.43 201.055 102.429H242.089C242.769 102.429 243.427 102.186 243.946 101.745C244.465 101.303 244.812 100.69 244.923 100.016C247.576 82.7037 247.576 65.0858 244.923 47.774C244.812 47.0996 244.465 46.4869 243.946 46.045C243.427 45.603 242.769 45.3606 242.089 45.3608L201.055 45.3609Z" fill="white"/>
<path d="M160.27 150.257H119.237C118.3 150.26 117.374 150.048 116.531 149.637C115.687 149.226 114.948 148.628 114.37 147.887C113.781 147.139 113.37 146.267 113.168 145.335C112.965 144.404 112.977 143.438 113.202 142.512C116.974 126.635 116.974 110.089 113.202 94.2117C112.977 93.2856 112.965 92.3202 113.168 91.3889C113.37 90.4577 113.781 89.5851 114.37 88.8375C114.948 88.0966 115.687 87.4979 116.531 87.0872C117.374 86.6765 118.3 86.4645 119.237 86.4673H160.27C161.748 86.4717 163.177 87.0032 164.301 87.9671C165.426 88.931 166.173 90.2647 166.411 91.7306C169.115 109.381 169.115 127.343 166.411 144.994C166.173 146.46 165.426 147.793 164.301 148.757C163.177 149.721 161.748 150.253 160.27 150.257Z" fill="#F2F2F2"/>
<path d="M233.134 68.0345H211.602C210.783 68.0336 209.998 67.7065 209.419 67.1249C208.841 66.5433 208.515 65.7547 208.514 64.9323V63.7199C208.515 62.8974 208.841 62.1089 209.419 61.5273C209.998 60.9457 210.783 60.6186 211.602 60.6177H233.134C233.953 60.6186 234.737 60.9457 235.316 61.5273C235.895 62.1089 236.221 62.8974 236.221 63.7199V64.9323C236.221 65.7548 235.895 66.5433 235.316 67.1249C234.737 67.7065 233.953 68.0336 233.134 68.0345Z" fill="#E6E6E6"/>
<path d="M233.134 83.3529H211.602C210.783 83.352 209.998 83.0248 209.419 82.4432C208.841 81.8616 208.515 81.0731 208.514 80.2506V79.0383C208.515 78.2158 208.841 77.4272 209.419 76.8456C209.998 76.2641 210.783 75.9369 211.602 75.936H233.134C233.953 75.9369 234.737 76.2641 235.316 76.8456C235.895 77.4272 236.221 78.2158 236.221 79.0383V80.2506C236.221 81.0731 235.895 81.8616 235.316 82.4432C234.737 83.0248 233.953 83.352 233.134 83.3529Z" fill="#E6E6E6"/>
<path d="M139.869 130.041C146.405 130.041 151.704 124.717 151.704 118.149C151.704 111.581 146.405 106.256 139.869 106.256C133.332 106.256 128.033 111.581 128.033 118.149C128.033 124.717 133.332 130.041 139.869 130.041Z" fill="white"/>
<path d="M145.529 116.598H141.412V112.461C141.412 112.05 141.249 111.655 140.96 111.364C140.67 111.074 140.278 110.91 139.868 110.91C139.459 110.91 139.066 111.074 138.777 111.364C138.487 111.655 138.324 112.05 138.324 112.461V116.598H134.208C133.798 116.598 133.406 116.761 133.116 117.052C132.827 117.343 132.664 117.738 132.664 118.149C132.664 118.56 132.827 118.955 133.116 119.246C133.406 119.537 133.798 119.7 134.208 119.7H138.324V123.837C138.324 124.248 138.487 124.643 138.777 124.934C139.066 125.224 139.459 125.388 139.868 125.388C140.278 125.388 140.67 125.224 140.96 124.934C141.249 124.643 141.412 124.248 141.412 123.837V119.7H145.529C145.938 119.7 146.331 119.537 146.62 119.246C146.91 118.955 147.072 118.56 147.072 118.149C147.072 117.738 146.91 117.343 146.62 117.052C146.331 116.761 145.938 116.598 145.529 116.598Z" fill="#E6E6E6"/>
<path d="M45.5899 243.568H51.8986L53.871 219.117H45.5889L45.5899 243.568Z" fill="#FFB8B8"/>
<path d="M43.9805 241.499L56.4044 241.498H56.4049C57.4446 241.498 58.4742 241.704 59.4348 242.104C60.3954 242.503 61.2682 243.089 62.0035 243.828C62.7387 244.567 63.3219 245.444 63.7198 246.409C64.1177 247.374 64.3225 248.409 64.3224 249.454V249.712L43.9809 249.713L43.9805 241.499Z" fill="#2F2E41"/>
<path d="M11.6275 243.568H17.9362L20.9378 219.117H11.6265L11.6275 243.568Z" fill="#FFB8B8"/>
<path d="M10.0186 241.499L22.4425 241.498H22.443C23.4827 241.498 24.5123 241.704 25.4729 242.104C26.4335 242.503 27.3063 243.089 28.0416 243.828C28.7768 244.567 29.36 245.444 29.7579 246.409C30.1558 247.374 30.3605 248.409 30.3605 249.454V249.712L10.0189 249.713L10.0186 241.499Z" fill="#2F2E41"/>
<path d="M12.7466 235.844C12.103 235.844 11.4831 235.601 11.0099 235.163C10.7558 234.93 10.5513 234.648 10.4084 234.333C10.2655 234.019 10.1873 233.679 10.1784 233.334L7.64844 142.22L43.5718 151.244L54.6556 184.655C56.0849 188.954 56.7036 193.482 56.48 198.008L55.1037 230.395C55.0724 231.059 54.7878 231.685 54.3092 232.143C53.8306 232.601 53.1948 232.857 52.5337 232.856H46.5085C45.8866 232.853 45.2865 232.626 44.8182 232.214C44.3499 231.803 44.0448 231.236 43.9589 230.617L39.6524 194.867C39.2761 192.078 38.3052 189.403 36.8059 187.026L28.331 173.543C28.2744 173.453 28.1914 173.383 28.0935 173.342C27.9956 173.301 27.8874 173.291 27.784 173.315C27.6805 173.338 27.5867 173.393 27.5153 173.471C27.444 173.55 27.3986 173.649 27.3854 173.755L20.7347 233.263C20.6633 233.867 20.3823 234.425 19.9411 234.841C19.4999 235.257 18.9269 235.503 18.3229 235.536L12.893 235.84C12.8442 235.842 12.7954 235.844 12.7466 235.844Z" fill="#2F2E41"/>
<path d="M37.5942 83.2303C44.5743 83.2303 50.2328 77.5445 50.2328 70.5307C50.2328 63.5169 44.5743 57.8311 37.5942 57.8311C30.6141 57.8311 24.9556 63.5169 24.9556 70.5307C24.9556 77.5445 30.6141 83.2303 37.5942 83.2303Z" fill="#FFB8B8"/>
<path d="M43.3999 154.95C43.1824 154.949 42.9658 154.922 42.7551 154.867L7.11278 145.684C6.47553 145.52 5.92503 145.117 5.57446 144.558C5.22388 143.999 5.09987 143.326 5.22794 142.677L13.4134 98.3699C13.9234 95.8087 15.0444 93.4102 16.6801 91.3802C18.3158 89.3503 20.4174 87.7495 22.8044 86.7155C25.1302 85.6811 27.6737 85.238 30.2103 85.4251C32.7469 85.6122 35.1987 86.4239 37.3493 87.7885C37.8483 88.1013 38.3509 88.4424 38.8429 88.8024C40.8234 90.2705 42.4386 92.1797 43.5616 94.3802C44.6846 96.5807 45.285 99.0128 45.3157 101.486L45.9666 152.328C45.971 152.67 45.9079 153.009 45.781 153.326C45.654 153.644 45.4658 153.933 45.2272 154.176C44.9885 154.42 44.7042 154.614 44.3905 154.747C44.0769 154.879 43.7402 154.948 43.3999 154.95Z" fill="#E64BFF"/>
<path d="M10.7799 155.471C10.3547 154.842 10.0719 154.127 9.95136 153.377C9.83082 152.626 9.87551 151.859 10.0823 151.127C10.289 150.396 10.6528 149.719 11.148 149.145C11.6431 148.57 12.2577 148.112 12.9483 147.801L11.363 129.393L19.764 133.968L19.9815 150.748C20.4232 151.948 20.4113 153.27 19.9481 154.462C19.4849 155.654 18.6026 156.634 17.4684 157.216C16.3342 157.798 15.0269 157.942 13.7941 157.62C12.5614 157.299 11.4889 156.534 10.7799 155.471Z" fill="#FFB8B8"/>
<path d="M13.7815 145.367C13.5445 145.366 13.3084 145.336 13.0787 145.277C12.5848 145.151 12.1341 144.892 11.7743 144.529C11.4145 144.167 11.159 143.713 11.0349 143.216L6.90629 126.73C5.46347 120.972 6.15127 114.884 8.84174 109.597L17.4912 92.5953C18.038 90.5597 19.3591 88.8216 21.1696 87.7558C22.9801 86.69 25.135 86.3819 27.1695 86.898C28.1835 87.1553 29.1367 87.6124 29.9736 88.2426C30.8105 88.8728 31.5146 89.6638 32.045 90.5695C32.5864 91.4882 32.9404 92.5059 33.0866 93.5635C33.2327 94.621 33.168 95.6972 32.8962 96.7293L20.5836 124.395L20.7298 140.96C20.7336 141.544 20.5588 142.115 20.2289 142.597C19.899 143.078 19.43 143.446 18.8853 143.651L14.7649 145.188C14.4503 145.306 14.1173 145.366 13.7815 145.367Z" fill="#E64BFF"/>
<path d="M72.7194 148.7C71.9678 148.613 71.2442 148.362 70.5996 147.965C69.9549 147.567 69.4049 147.032 68.9882 146.398C68.5715 145.763 68.2984 145.045 68.1879 144.293C68.0775 143.541 68.1325 142.773 68.3491 142.045L53.4297 131.244L62.361 127.831L75.1595 138.611C76.353 139.057 77.342 139.929 77.9391 141.059C78.5361 142.189 78.6998 143.501 78.399 144.744C78.0983 145.988 77.354 147.077 76.3072 147.806C75.2604 148.535 73.9838 148.853 72.7194 148.7Z" fill="#FFB8B8"/>
<path d="M64.9087 140.812C64.4689 140.812 64.0351 140.709 63.6415 140.511L48.5133 132.902C43.2293 130.244 39.0855 125.749 36.8526 120.251L29.6705 102.573C28.4919 100.828 28.0427 98.6884 28.4198 96.6142C28.7969 94.54 29.9701 92.6978 31.6865 91.4848C32.544 90.8789 33.513 90.4506 34.537 90.2248C35.5609 89.999 36.6194 89.9802 37.6506 90.1697C38.694 90.3582 39.6897 90.7528 40.5802 91.3309C41.4706 91.9089 42.238 92.6587 42.838 93.5369L55.6742 120.962L68.2638 131.656C68.7071 132.034 69.0242 132.54 69.172 133.105C69.3199 133.67 69.2915 134.268 69.0906 134.816L67.5624 138.957C67.3629 139.5 67.0025 139.968 66.5297 140.299C66.0545 140.633 65.4886 140.812 64.9087 140.812Z" fill="#E64BFF"/>
<path d="M34.9398 83.4246C35.6113 83.7198 36.9865 78.3432 36.3705 77.2679C35.4544 75.6686 35.5086 75.6801 34.9004 74.622C34.2923 73.564 34.1562 72.1158 34.9437 71.1848C35.7313 70.2538 37.5537 70.3773 37.9131 71.5446C37.6819 69.3275 39.8643 67.5453 42.0261 67.0445C44.1879 66.5437 46.4682 66.8546 48.6419 66.409C51.1646 65.8917 53.7893 63.7669 52.7828 60.9794C52.6101 60.5153 52.3515 60.0883 52.0207 59.7209C50.8578 58.407 49.2311 57.846 47.6406 57.3036C44.3318 56.1751 40.9325 55.0325 37.4405 55.157C34.5633 55.3082 31.7924 56.2989 29.4668 58.0079C27.1412 59.7168 25.3618 62.0699 24.3464 64.7792C24.1057 65.457 23.9193 66.153 23.7889 66.8606C22.5903 73.3364 26.3328 79.724 32.4113 82.19L34.9398 83.4246Z" fill="#2F2E41"/>
<path opacity="0.2" d="M20.0171 141.336L20.3037 124.309L29.2795 106.175L22.0754 124.79L20.0171 141.336Z" fill="black"/>
<path d="M101.412 184.065L63.5193 168.245C62.6887 167.902 61.9471 167.372 61.3509 166.697C60.7547 166.022 60.3196 165.219 60.0788 164.349C59.8312 163.469 59.7866 162.545 59.9484 161.645C60.1102 160.745 60.4741 159.895 61.0125 159.158C70.5825 145.917 76.9164 130.599 79.5015 114.442C79.6415 113.539 79.9847 112.68 80.5049 111.93C81.0252 111.18 81.7088 110.559 82.5038 110.115C83.287 109.673 84.1603 109.416 85.0572 109.364C85.954 109.312 86.8508 109.467 87.6793 109.816L125.572 125.635C126.879 126.185 127.949 127.183 128.592 128.452C129.234 129.721 129.408 131.177 129.082 132.563C124.846 149.879 117.997 166.442 108.774 181.677C108.027 182.886 106.877 183.79 105.529 184.228C104.181 184.665 102.722 184.608 101.412 184.065Z" fill="#E6E6E6"/>
<path d="M86.4944 112.681C86.0966 112.513 85.666 112.439 85.2353 112.463C84.8045 112.488 84.3851 112.611 84.0089 112.823C83.6222 113.04 83.2898 113.343 83.037 113.708C82.7841 114.074 82.6176 114.492 82.5499 114.932C79.8875 131.571 73.3644 147.347 63.5084 160.984C63.2459 161.342 63.0683 161.756 62.989 162.193C62.9097 162.631 62.9308 163.081 63.0507 163.51C63.1664 163.927 63.3756 164.313 63.662 164.637C63.9484 164.961 64.3046 165.216 64.7036 165.381L102.596 181.201C103.225 181.463 103.925 181.493 104.573 181.285C105.221 181.077 105.775 180.645 106.136 180.065C115.195 165.101 121.923 148.831 126.084 131.822C126.238 131.156 126.152 130.457 125.842 129.848C125.531 129.24 125.016 128.763 124.387 128.5L86.4944 112.681Z" fill="white"/>
<path d="M106.671 147.896L86.786 139.595C86.0305 139.278 85.4307 138.674 85.1183 137.914C84.8058 137.153 84.8063 136.3 85.1195 135.54L85.5824 134.42C85.8973 133.661 86.4991 133.058 87.2556 132.744C88.0122 132.43 88.8618 132.431 89.6181 132.746L109.503 141.047C110.258 141.364 110.858 141.968 111.17 142.729C111.483 143.489 111.482 144.342 111.169 145.102L110.706 146.222C110.391 146.981 109.79 147.584 109.033 147.898C108.276 148.212 107.427 148.211 106.671 147.896Z" fill="#2F2E41"/>
<path d="M100.822 162.042L80.9369 153.741C80.1813 153.424 79.5816 152.82 79.2691 152.059C78.9567 151.299 78.9572 150.445 79.2704 149.685L79.7333 148.566C80.0482 147.807 80.65 147.204 81.4065 146.89C82.1631 146.576 83.0127 146.577 83.769 146.891L103.654 155.193C104.409 155.509 105.009 156.114 105.321 156.874C105.634 157.635 105.633 158.488 105.32 159.248L104.857 160.368C104.542 161.127 103.941 161.73 103.184 162.043C102.427 162.357 101.578 162.357 100.822 162.042Z" fill="#2F2E41"/>
<path d="M72.5557 250H0.514579C0.378104 250 0.247227 249.945 0.150724 249.848C0.0542219 249.752 0 249.62 0 249.483C0 249.346 0.0542219 249.214 0.150724 249.117C0.247227 249.02 0.378104 248.966 0.514579 248.966H72.5557C72.6922 248.966 72.8231 249.02 72.9196 249.117C73.0161 249.214 73.0703 249.346 73.0703 249.483C73.0703 249.62 73.0161 249.752 72.9196 249.848C72.8231 249.945 72.6922 250 72.5557 250Z" fill="#CCCCCC"/>
</g>
<defs>
<clipPath id="clip0_594_492">
<rect width="250" height="250" fill="white"/>
</clipPath>
</defs>
</svg>
